<svg width="22" height="22" viewBox="0 0 22 22" fill="none" xmlns="http://www.w3.org/2000/svg">
<g id="Heart">
<path id="Heart_2" fill-rule="evenodd" clip-rule="evenodd" d="M5.02076 1.05006C1.04321 2.33065 -0.730918 6.67299 0.602617 10.8155C1.27932 12.7661 2.37985 14.5193 3.82577 15.9577C5.80933 17.8842 7.98848 19.5795 10.331 21.02L10.597 21.1793C10.8518 21.3318 11.1705 21.3291 11.4227 21.1724L11.671 21.018C14.0103 19.5795 16.1895 17.8842 18.1663 15.9644C19.619 14.5193 20.7195 12.7661 21.3905 10.8324C22.7289 6.67551 20.9475 2.33111 16.9687 1.05012L16.6809 0.964413C14.8566 0.462674 12.9181 0.709906 11.284 1.63512L10.9935 1.80731L10.7081 1.63608C8.98449 0.658056 6.92449 0.437697 5.02076 1.05006ZM10.3199 3.25896L10.5331 3.41182C10.814 3.61304 11.1931 3.60904 11.4697 3.40194C12.9106 2.32328 14.7753 2.00939 16.4835 2.55741C19.5662 3.54991 20.9692 6.9712 19.8877 10.3307C19.3011 12.0204 18.3301 13.5672 17.055 14.8357L16.483 15.3791C14.9418 16.8113 13.2752 18.1079 11.5056 19.2504L10.9988 19.5692L11.1534 19.6667C8.91793 18.2919 6.83062 16.668 4.93703 14.829C3.6687 13.5672 2.69773 12.0204 2.10547 10.3137C1.02865 6.968 2.42548 3.54912 5.50656 2.55716C7.13348 2.03383 8.90717 2.2933 10.3199 3.25896ZM15.1902 5.02421C14.7733 4.89117 14.3275 5.12095 14.1943 5.53744C14.0612 5.95394 14.2911 6.39942 14.708 6.53247C15.5273 6.79396 16.1113 7.53136 16.1845 8.4012C16.2212 8.83689 16.6044 9.16039 17.0404 9.12377C17.4765 9.08714 17.8002 8.70425 17.7636 8.26857C17.6369 6.7628 16.6217 5.48113 15.1902 5.02421Z" fill="#007185"/>
</g>
</svg>
