<svg width="31" height="30" viewBox="0 0 31 30" fill="none" xmlns="http://www.w3.org/2000/svg">
<g id="App logo 088">
<path id="Vector" fill-rule="evenodd" clip-rule="evenodd" d="M23.7578 0C28.0938 0 30.9062 2.8125 30.9062 7.14845V22.8515C30.9062 27.1875 28.0938 30 23.7578 30H8.0547C3.71875 30 0.90625 27.1875 0.90625 22.8515V7.14845C0.90625 2.8125 3.71875 0 8.0547 0H23.7578Z" fill="white"/>
<path id="Vector_2" fill-rule="evenodd" clip-rule="evenodd" d="M23.7578 0C28.0938 0 30.9062 2.8125 30.9062 7.14845V22.8515C30.9062 27.1875 28.0938 30 23.7578 30H8.0547C3.71875 30 0.90625 27.1875 0.90625 22.8515V7.14845C0.90625 2.8125 3.71875 0 8.0547 0H23.7578Z" fill="white"/>
<path id="Vector_3" fill-rule="evenodd" clip-rule="evenodd" d="M13.0398 5.54702C10.6152 6.37812 8.54929 8.19579 7.39856 10.4961C6.99716 11.2896 6.70814 12.1315 6.53151 13.0054C6.09264 15.1717 6.39771 17.4827 7.39321 19.4559C8.04084 20.7427 8.97211 21.8902 10.0961 22.7856C11.1612 23.6328 12.3975 24.2655 13.7142 24.614C15.3733 25.0591 17.1396 25.0483 18.8095 24.6676C20.3188 24.3191 21.7478 23.5953 22.8878 22.5443C24.0921 21.4344 24.9538 19.976 25.4087 18.4049C25.9064 16.6945 25.9706 14.866 25.6604 13.1073C22.5399 13.1073 19.4143 13.1073 16.2939 13.1073C16.2939 14.4049 16.2939 15.7025 16.2939 17.0001C18.103 17.0001 19.912 17.0001 21.7211 17.0001C21.5123 18.2441 20.7737 19.3808 19.73 20.0832C19.0717 20.5282 18.3171 20.8124 17.5356 20.9518C16.7542 21.0859 15.9407 21.102 15.1593 20.9465C14.3618 20.7856 13.6071 20.4532 12.9434 19.9867C11.8837 19.2414 11.0755 18.1529 10.6634 16.925C10.2406 15.6757 10.2352 14.2869 10.6634 13.043C10.9631 12.1636 11.4555 11.354 12.1085 10.6891C12.9113 9.86337 13.955 9.27354 15.0843 9.03227C16.0477 8.82852 17.0646 8.86604 18.0066 9.15022C18.8095 9.39152 19.5481 9.83654 20.1529 10.4156C20.763 9.80439 21.3732 9.19312 21.9833 8.58187C22.3044 8.25479 22.6416 7.93842 22.9521 7.60062C22.0261 6.74272 20.9343 6.05102 19.7461 5.61134C17.6052 4.81779 15.1967 4.80169 13.0398 5.54702Z" fill="white"/>
<path id="Vector_4" fill-rule="evenodd" clip-rule="evenodd" d="M13.0397 5.54691C15.1912 4.80158 17.6051 4.81768 19.746 5.60588C20.9341 6.04556 22.0206 6.73188 22.9519 7.59516C22.6415 7.93296 22.3043 8.24931 21.9832 8.57638C21.373 9.18766 20.7629 9.79891 20.1527 10.4102C19.5479 9.83108 18.8093 9.39141 18.0065 9.14476C17.0645 8.86058 16.0476 8.81768 15.0842 9.02678C13.9602 9.26808 12.9166 9.85788 12.1084 10.6836C11.4554 11.3432 10.963 12.1582 10.6633 13.0375C9.57679 12.1903 8.49029 11.3485 7.39844 10.5013C8.54916 8.19568 10.6151 6.37801 13.0397 5.54691Z" fill="#EA4335"/>
<path id="Vector_5" fill-rule="evenodd" clip-rule="evenodd" d="M6.53123 13.0002C6.70785 12.1315 6.99688 11.2843 7.3983 10.4908C8.48478 11.338 9.57128 12.1798 10.6631 13.027C10.235 14.2763 10.235 15.665 10.6631 16.909C9.57663 17.7562 8.49015 18.6034 7.40365 19.4452C6.39743 17.4774 6.09235 15.1664 6.53123 13.0002Z" fill="#FBBC05"/>
<path id="Vector_6" fill-rule="evenodd" clip-rule="evenodd" d="M16.2944 13.1017C19.4147 13.1017 22.5404 13.1017 25.6609 13.1017C25.9711 14.8551 25.9016 16.6835 25.4092 18.3993C24.9543 19.9704 24.0926 21.4288 22.8883 22.5387C21.8339 21.7184 20.7795 20.898 19.7252 20.0776C20.7688 19.3752 21.5074 18.2385 21.7162 16.9945C19.9071 16.9945 18.0981 16.9945 16.2891 16.9945C16.2944 15.6969 16.2944 14.3993 16.2944 13.1017Z" fill="#4285F4"/>
<path id="Vector_7" fill-rule="evenodd" clip-rule="evenodd" d="M7.39844 19.4501C8.48494 18.6083 9.57144 17.7611 10.6579 16.9139C11.0754 18.1418 11.8782 19.2303 12.938 19.9756C13.6016 20.4421 14.3616 20.7745 15.1538 20.9354C15.9352 21.0963 16.7434 21.0748 17.5301 20.9408C18.3116 20.8013 19.0662 20.5172 19.7245 20.0721C20.7789 20.8925 21.8333 21.7129 22.8877 22.5332C21.7477 23.5895 20.3186 24.308 18.8093 24.6566C17.1394 25.0372 15.3732 25.048 13.714 24.603C12.3974 24.2544 11.161 23.6271 10.0959 22.7745C8.97734 21.8845 8.04606 20.737 7.39844 19.4501Z" fill="#34A853"/>
</g>
</svg>
