<svg width="16" height="17" viewBox="0 0 16 17" fill="none" xmlns="http://www.w3.org/2000/svg">
<g id="Location">
<path id="Location_2" fill-rule="evenodd" clip-rule="evenodd" d="M8.02139 0.166057C4.18054 0.153009 1.04331 3.20881 0.917919 7.03381L0.914062 7.27123C0.977903 9.14608 1.61579 10.9333 2.7393 12.4057L3.00316 12.75C4.07556 14.1136 5.34999 15.3105 6.78096 16.2969L7.12549 16.5289L7.17577 16.5683C7.66623 16.9207 8.32844 16.9207 8.8189 16.5683L8.86075 16.534C9.99619 15.7976 11.0432 14.9324 11.9811 13.9554C13.8879 11.937 15.0372 9.67539 15.0805 7.3785L15.0806 7.29322C15.0937 3.44262 12.0473 0.295741 8.23403 0.169924L8.02139 0.166057ZM8.01711 1.43056C11.1659 1.44133 13.7224 3.95719 13.8173 7.09027L13.82 7.36652C13.7835 9.2922 12.7753 11.2764 11.0696 13.082C10.1998 13.9879 9.22468 14.7932 8.16703 15.4781L8.09654 15.531C8.03958 15.5805 7.95509 15.5805 7.89813 15.531L7.82962 15.4793C6.25404 14.4506 4.8712 13.1519 3.74437 11.6424C2.83671 10.4528 2.29886 9.0305 2.1906 7.54675L2.17469 7.24923C2.18539 4.09285 4.6935 1.52849 7.81694 1.43327L8.01711 1.43056ZM7.99734 4.66709C6.50701 4.66709 5.29886 5.87897 5.29886 7.3739C5.29886 8.86882 6.50701 10.0807 7.99734 10.0807C9.48766 10.0807 10.6958 8.86882 10.6958 7.3739C10.6958 5.87897 9.48766 4.66709 7.99734 4.66709ZM7.99734 5.93161C8.79144 5.93161 9.43518 6.57734 9.43518 7.3739C9.43518 8.17045 8.79144 8.81618 7.99734 8.81618C7.20323 8.81618 6.55949 8.17045 6.55949 7.3739C6.55949 6.57734 7.20323 5.93161 7.99734 5.93161Z" fill="#0857D0"/>
</g>
</svg>
