<svg width="24" height="24" viewBox="0 0 24 24" fill="none" xmlns="http://www.w3.org/2000/svg">
<g id="mage:home-2">
<path id="Vector" d="M19.6307 7.11011L13.1567 3.09011C12.8025 2.86896 12.3933 2.75171 11.9757 2.75171C11.5582 2.75171 11.149 2.86896 10.7947 3.09011L4.32175 7.13311C3.9537 7.36521 3.66159 7.69991 3.48142 8.09598C3.30124 8.49204 3.24087 8.93216 3.30775 9.36211L4.97775 19.3891C5.06602 19.914 5.33914 20.3901 5.74775 20.7312C6.15636 21.0723 6.67351 21.256 7.20575 21.2491H16.7877C17.3202 21.2562 17.8375 21.0726 18.2464 20.7315C18.6552 20.3904 18.9284 19.9142 19.0167 19.3891L20.6867 9.36211C20.7539 8.92426 20.6892 8.47631 20.5007 8.07541C20.3123 7.6745 20.0087 7.3388 19.6287 7.11111M8.63375 16.4591H15.3187" stroke="#007185" stroke-width="1.5" stroke-linecap="round" stroke-linejoin="round"/>
</g>
</svg>
