<svg width="30" height="30" viewBox="0 0 30 30" fill="none" xmlns="http://www.w3.org/2000/svg">
<path fill-rule="evenodd" clip-rule="evenodd" d="M14.5144 2.5C7.87904 2.5 2.5 7.76024 2.5 14.2491C2.5 20.7379 7.87904 25.9982 14.5144 25.9982C17.3524 25.9982 19.9605 25.0359 22.0162 23.4269L25.9213 27.2358L26.0252 27.3233C26.3878 27.5857 26.9018 27.5558 27.2298 27.2341C27.5907 26.8803 27.59 26.3074 27.2281 25.9545L23.369 22.1904C25.3312 20.0992 26.5289 17.3109 26.5289 14.2491C26.5289 7.76024 21.1498 2.5 14.5144 2.5ZM14.5144 4.30967C20.1278 4.30967 24.6783 8.7597 24.6783 14.2491C24.6783 19.7385 20.1278 24.1885 14.5144 24.1885C8.90107 24.1885 4.35054 19.7385 4.35054 14.2491C4.35054 8.7597 8.90107 4.30967 14.5144 4.30967Z" fill="#1F2937"/>
</svg>
