<svg width="19" height="19" viewBox="0 0 19 19" fill="none" xmlns="http://www.w3.org/2000/svg">
<g id="Icon" clip-path="url(#clip0_339_10542)">
<path id="Vector" d="M10.9759 4.01039C10.9759 3.85039 10.9259 3.72039 10.8259 3.62039C10.7259 3.52039 10.5959 3.47039 10.4359 3.47039H4.79594C4.63594 3.47039 4.50594 3.52039 4.40594 3.62039C4.30594 3.72039 4.25594 3.85039 4.25594 4.01039V8.51039C4.25594 8.67039 4.30594 8.81039 4.40594 8.93039C4.50594 9.05039 4.63594 9.11039 4.79594 9.11039H10.4359C10.5959 9.11039 10.7259 9.05039 10.8259 8.93039C10.9259 8.81039 10.9759 8.67039 10.9759 8.51039V4.01039ZM9.83594 7.97039H5.33594V4.61039H9.83594V7.97039ZM17.4559 4.61039L15.1759 3.53039C15.0559 3.45039 14.9159 3.43039 14.7559 3.47039C14.5959 3.51039 14.4859 3.60039 14.4259 3.74039C14.3659 3.88039 14.3559 4.03039 14.3959 4.19039C14.4359 4.35039 14.5359 4.45039 14.6959 4.49039L15.5359 4.97039L15.4759 5.15039C15.4759 5.51039 15.5859 5.83039 15.8059 6.11039C16.0259 6.39039 16.2959 6.59039 16.6159 6.71039V13.5504C16.6159 13.7104 16.5559 13.8504 16.4359 13.9704C16.3159 14.0904 16.1859 14.1504 16.0459 14.1504C15.9059 14.1504 15.7759 14.0904 15.6559 13.9704C15.5359 13.8504 15.4759 13.7104 15.4759 13.5504V9.05039C15.4759 8.41039 15.2459 7.83039 14.7859 7.31039C14.3259 6.79039 13.8159 6.47039 13.2559 6.35039V2.87039C13.2559 2.27039 13.0359 1.75039 12.5959 1.31039C12.1559 0.870392 11.6359 0.650391 11.0359 0.650391H4.25594C3.65594 0.650391 3.12594 0.870392 2.66594 1.31039C2.20594 1.75039 1.97594 2.27039 1.97594 2.87039V15.4704L1.19594 15.8904C0.955937 16.0104 0.835938 16.1704 0.835938 16.3704V18.0504C0.835938 18.2104 0.895937 18.3504 1.01594 18.4704C1.13594 18.5904 1.27594 18.6504 1.43594 18.6504H13.7959C13.9559 18.6504 14.0859 18.5904 14.1859 18.4704C14.2859 18.3504 14.3359 18.2104 14.3359 18.0504V16.3704C14.3359 16.1704 14.2359 16.0104 14.0359 15.8904L13.2559 15.4704V7.49039C13.5359 7.61039 13.7859 7.82039 14.0059 8.12039C14.2259 8.42039 14.3359 8.73039 14.3359 9.05039V13.5504C14.3359 14.0304 14.5059 14.4404 14.8459 14.7804C15.1859 15.1204 15.5859 15.2904 16.0459 15.2904C16.5059 15.2904 16.9059 15.1204 17.2459 14.7804C17.5859 14.4404 17.7559 14.0304 17.7559 13.5504V5.15039C17.7559 4.91039 17.6559 4.73039 17.4559 4.61039ZM13.2559 17.5104H1.97594V16.7304L2.81594 16.3104C3.01594 16.2304 3.11594 16.0704 3.11594 15.8304V2.87039C3.11594 2.59039 3.22594 2.34039 3.44594 2.12039C3.66594 1.90039 3.93594 1.79039 4.25594 1.79039H11.0359C11.3159 1.79039 11.5659 1.90039 11.7859 2.12039C12.0059 2.34039 12.1159 2.59039 12.1159 2.87039V15.8304C12.1159 16.0704 12.2159 16.2304 12.4159 16.3104L13.2559 16.7304V17.5104Z" fill="#1F2937"/>
</g>
<defs>
<clipPath id="clip0_339_10542">
<rect width="18" height="18" fill="white" transform="matrix(1 0 0 -1 0.296875 18.6504)"/>
</clipPath>
</defs>
</svg>
