<svg width="19" height="19" viewBox="0 0 19 19" fill="none" xmlns="http://www.w3.org/2000/svg">
<g id="Icon">
<path id="Vector" d="M3.96187 2.3307C3.40188 2.3307 2.92187 2.5307 2.52187 2.9307C2.12188 3.3307 1.92188 3.8207 1.92188 4.4007C1.92188 4.9807 2.12188 5.4707 2.52187 5.8707C2.92187 6.2707 3.40188 6.4707 3.96187 6.4707C4.52187 6.4707 5.00187 6.2707 5.40188 5.8707C5.80187 5.4707 6.00187 4.9807 6.00187 4.4007C6.00187 3.8207 5.80187 3.3307 5.40188 2.9307C5.00187 2.5307 4.52187 2.3307 3.96187 2.3307ZM3.96187 3.4707C4.20187 3.4707 4.42188 3.5607 4.62188 3.7407C4.82187 3.9207 4.92188 4.1407 4.92188 4.4007C4.92188 4.6607 4.82187 4.8807 4.62188 5.0607C4.42188 5.2407 4.20187 5.3307 3.96187 5.3307C3.72187 5.3307 3.50187 5.2407 3.30187 5.0607C3.10187 4.8807 3.00187 4.6607 3.00187 4.4007C3.00187 4.1407 3.10187 3.9207 3.30187 3.7407C3.50187 3.5607 3.72187 3.4707 3.96187 3.4707ZM3.96187 12.8307C3.40188 12.8307 2.92187 13.0307 2.52187 13.4307C2.12188 13.8307 1.92188 14.3207 1.92188 14.9007C1.92188 15.4807 2.12188 15.9707 2.52187 16.3707C2.92187 16.7707 3.40188 16.9707 3.96187 16.9707C4.52187 16.9707 5.00187 16.7707 5.40188 16.3707C5.80187 15.9707 6.00187 15.4807 6.00187 14.9007C6.00187 14.3207 5.80187 13.8307 5.40188 13.4307C5.00187 13.0307 4.52187 12.8307 3.96187 12.8307ZM3.96187 13.9707C4.20187 13.9707 4.42188 14.0607 4.62188 14.2407C4.82187 14.4207 4.92188 14.6407 4.92188 14.9007C4.92188 15.1607 4.82187 15.3807 4.62188 15.5607C4.42188 15.7407 4.20187 15.8307 3.96187 15.8307C3.72187 15.8307 3.50187 15.7407 3.30187 15.5607C3.10187 15.3807 3.00187 15.1607 3.00187 14.9007C3.00187 14.6407 3.10187 14.4207 3.30187 14.2407C3.50187 14.0607 3.72187 13.9707 3.96187 13.9707ZM9.96187 2.3307C9.40188 2.3307 8.92188 2.5307 8.52187 2.9307C8.12187 3.3307 7.92188 3.8207 7.92188 4.4007C7.92188 4.9807 8.12187 5.4707 8.52187 5.8707C8.92188 6.2707 9.40188 6.4707 9.96187 6.4707C10.5219 6.4707 11.0019 6.2707 11.4019 5.8707C11.8019 5.4707 12.0019 4.9807 12.0019 4.4007C12.0019 3.8207 11.8019 3.3307 11.4019 2.9307C11.0019 2.5307 10.5219 2.3307 9.96187 2.3307ZM9.96187 3.4707C10.2019 3.4707 10.4219 3.5607 10.6219 3.7407C10.8219 3.9207 10.9219 4.1407 10.9219 4.4007C10.9219 4.6607 10.8219 4.8807 10.6219 5.0607C10.4219 5.2407 10.2019 5.3307 9.96187 5.3307C9.72187 5.3307 9.50187 5.2407 9.30187 5.0607C9.10187 4.8807 9.00187 4.6607 9.00187 4.4007C9.00187 4.1407 9.10187 3.9207 9.30187 3.7407C9.50187 3.5607 9.72187 3.4707 9.96187 3.4707ZM9.96187 12.8307C9.40188 12.8307 8.92188 13.0307 8.52187 13.4307C8.12187 13.8307 7.92188 14.3207 7.92188 14.9007C7.92188 15.4807 8.12187 15.9707 8.52187 16.3707C8.92188 16.7707 9.40188 16.9707 9.96187 16.9707C10.5219 16.9707 11.0019 16.7707 11.4019 16.3707C11.8019 15.9707 12.0019 15.4807 12.0019 14.9007C12.0019 14.3207 11.8019 13.8307 11.4019 13.4307C11.0019 13.0307 10.5219 12.8307 9.96187 12.8307ZM9.96187 13.9707C10.2019 13.9707 10.4219 14.0607 10.6219 14.2407C10.8219 14.4207 10.9219 14.6407 10.9219 14.9007C10.9219 15.1607 10.8219 15.3807 10.6219 15.5607C10.4219 15.7407 10.2019 15.8307 9.96187 15.8307C9.72187 15.8307 9.50187 15.7407 9.30187 15.5607C9.10187 15.3807 9.00187 15.1607 9.00187 14.9007C9.00187 14.6407 9.10187 14.4207 9.30187 14.2407C9.50187 14.0607 9.72187 13.9707 9.96187 13.9707ZM15.9619 2.3307C15.4019 2.3307 14.9219 2.5307 14.5219 2.9307C14.1219 3.3307 13.9219 3.8207 13.9219 4.4007C13.9219 4.9807 14.1219 5.4707 14.5219 5.8707C14.9219 6.2707 15.4019 6.4707 15.9619 6.4707C16.5219 6.4707 17.0019 6.2707 17.4019 5.8707C17.8019 5.4707 18.0019 4.9807 18.0019 4.4007C18.0019 3.8207 17.8019 3.3307 17.4019 2.9307C17.0019 2.5307 16.5219 2.3307 15.9619 2.3307ZM15.9619 3.4707C16.2019 3.4707 16.4219 3.5607 16.6219 3.7407C16.8219 3.9207 16.9219 4.1407 16.9219 4.4007C16.9219 4.6607 16.8219 4.8807 16.6219 5.0607C16.4219 5.2407 16.2019 5.3307 15.9619 5.3307C15.7219 5.3307 15.5019 5.2407 15.3019 5.0607C15.1019 4.8807 15.0019 4.6607 15.0019 4.4007C15.0019 4.1407 15.1019 3.9207 15.3019 3.7407C15.5019 3.5607 15.7219 3.4707 15.9619 3.4707ZM15.9619 12.8307C15.4019 12.8307 14.9219 13.0307 14.5219 13.4307C14.1219 13.8307 13.9219 14.3207 13.9219 14.9007C13.9219 15.4807 14.1219 15.9707 14.5219 16.3707C14.9219 16.7707 15.4019 16.9707 15.9619 16.9707C16.5219 16.9707 17.0019 16.7707 17.4019 16.3707C17.8019 15.9707 18.0019 15.4807 18.0019 14.9007C18.0019 14.3207 17.8019 13.8307 17.4019 13.4307C17.0019 13.0307 16.5219 12.8307 15.9619 12.8307ZM15.9619 13.9707C16.2019 13.9707 16.4219 14.0607 16.6219 14.2407C16.8219 14.4207 16.9219 14.6407 16.9219 14.9007C16.9219 15.1607 16.8219 15.3807 16.6219 15.5607C16.4219 15.7407 16.2019 15.8307 15.9619 15.8307C15.7219 15.8307 15.5019 15.7407 15.3019 15.5607C15.1019 15.3807 15.0019 15.1607 15.0019 14.9007C15.0019 14.6407 15.1019 14.4207 15.3019 14.2407C15.5019 14.0607 15.7219 13.9707 15.9619 13.9707ZM3.42188 5.8707V13.3707C3.42188 13.5307 3.47187 13.6707 3.57187 13.7907C3.67188 13.9107 3.80187 13.9707 3.96187 13.9707C4.12188 13.9707 4.25187 13.9107 4.35187 13.7907C4.45187 13.6707 4.50187 13.5507 4.50187 13.4307V5.8707C4.50187 5.7507 4.45187 5.6307 4.35187 5.5107C4.25187 5.3907 4.12188 5.3307 3.96187 5.3307C3.80187 5.3307 3.67188 5.3907 3.57187 5.5107C3.47187 5.6307 3.42188 5.7507 3.42188 5.8707ZM9.42188 5.8707V13.3707C9.42188 13.5307 9.47187 13.6707 9.57187 13.7907C9.67188 13.9107 9.80187 13.9707 9.96187 13.9707C10.1219 13.9707 10.2519 13.9107 10.3519 13.7907C10.4519 13.6707 10.5019 13.5507 10.5019 13.4307V5.8707C10.5019 5.7507 10.4519 5.6307 10.3519 5.5107C10.2519 5.3907 10.1219 5.3307 9.96187 5.3307C9.80187 5.3307 9.67188 5.3907 9.57187 5.5107C9.47187 5.6307 9.42188 5.7507 9.42188 5.8707ZM15.4219 5.8707V8.8707C15.4219 8.9507 15.4019 9.0107 15.3619 9.0507C15.3219 9.0907 15.2819 9.1107 15.2419 9.1107H3.96187C3.80187 9.1107 3.67188 9.1607 3.57187 9.2607C3.47187 9.3607 3.42188 9.4907 3.42188 9.6507C3.42188 9.8107 3.47187 9.9407 3.57187 10.0407C3.67188 10.1407 3.80187 10.1907 3.96187 10.1907H15.2419C15.6019 10.1907 15.9019 10.0707 16.1419 9.8307C16.3819 9.5907 16.5019 9.2707 16.5019 8.8707V5.9307C16.5019 5.7707 16.4519 5.6307 16.3519 5.5107C16.2519 5.3907 16.1219 5.3307 15.9619 5.3307C15.8019 5.3307 15.6719 5.3907 15.5719 5.5107C15.4719 5.6307 15.4219 5.7507 15.4219 5.8707Z" fill="#1F2937"/>
</g>
</svg>
